<svg width="25" height="27" viewBox="0 0 25 27" fill="none" xmlns="http://www.w3.org/2000/svg">
<path d="M24.0192 21.5956C23.3921 20.1101 22.482 18.7609 21.3397 17.6229C20.2009 16.4816 18.8518 15.5717 17.367 14.9434C17.3537 14.9367 17.3404 14.9334 17.3271 14.9268C19.3982 13.4308 20.7446 10.9939 20.7446 8.24463C20.7446 3.69013 17.0545 0 12.5 0C7.94551 0 4.25537 3.69013 4.25537 8.24463C4.25537 10.9939 5.60177 13.4308 7.6729 14.9301C7.65961 14.9367 7.64631 14.9401 7.63301 14.9467C6.14366 15.575 4.80723 16.476 3.6603 17.6262C2.51905 18.7651 1.60913 20.1141 0.980795 21.5989C0.363519 23.0525 0.030608 24.611 8.31311e-05 26.19C-0.00080418 26.2255 0.00541927 26.2608 0.018387 26.2938C0.0313547 26.3268 0.0508041 26.357 0.0755893 26.3824C0.100374 26.4078 0.129994 26.4279 0.162702 26.4417C0.195411 26.4555 0.230546 26.4626 0.266039 26.4626H2.26071C2.40698 26.4626 2.52334 26.3462 2.52666 26.2033C2.59315 23.6368 3.62373 21.2332 5.44553 19.4114C7.33049 17.5265 9.83379 16.4893 12.5 16.4893C15.1662 16.4893 17.6695 17.5265 19.5545 19.4114C21.3763 21.2332 22.4068 23.6368 22.4733 26.2033C22.4767 26.3496 22.593 26.4626 22.7393 26.4626H24.734C24.7695 26.4626 24.8046 26.4555 24.8373 26.4417C24.87 26.4279 24.8996 26.4078 24.9244 26.3824C24.9492 26.357 24.9686 26.3268 24.9816 26.2938C24.9946 26.2608 25.0008 26.2255 24.9999 26.19C24.9667 24.6009 24.6376 23.055 24.0192 21.5956ZM12.5 13.9627C10.9741 13.9627 9.53792 13.3676 8.45747 12.2872C7.37703 11.2067 6.78195 9.77055 6.78195 8.24463C6.78195 6.7187 7.37703 5.28254 8.45747 4.2021C9.53792 3.12165 10.9741 2.52658 12.5 2.52658C14.0259 2.52658 15.4621 3.12165 16.5425 4.2021C17.623 5.28254 18.218 6.7187 18.218 8.24463C18.218 9.77055 17.623 11.2067 16.5425 12.2872C15.4621 13.3676 14.0259 13.9627 12.5 13.9627Z" fill="#545454"/>
</svg>
