<svg width="15" height="16" viewBox="0 0 15 16" fill="none" xmlns="http://www.w3.org/2000/svg">
<path d="M6.69644 7.53067C6.69644 7.74379 6.7811 7.94817 6.9318 8.09887C7.08249 8.24957 7.28688 8.33423 7.5 8.33423C7.71312 8.33423 7.91751 8.24957 8.0682 8.09887C8.2189 7.94817 8.30356 7.74379 8.30356 7.53067C8.30356 7.31755 8.2189 7.11316 8.0682 6.96246C7.91751 6.81177 7.71312 6.72711 7.5 6.72711C7.28688 6.72711 7.08249 6.81177 6.9318 6.96246C6.7811 7.11316 6.69644 7.31755 6.69644 7.53067ZM10.0446 7.53067C10.0446 7.74379 10.1293 7.94817 10.28 8.09887C10.4307 8.24957 10.6351 8.33423 10.8482 8.33423C11.0613 8.33423 11.2657 8.24957 11.4164 8.09887C11.5671 7.94817 11.6517 7.74379 11.6517 7.53067C11.6517 7.31755 11.5671 7.11316 11.4164 6.96246C11.2657 6.81177 11.0613 6.72711 10.8482 6.72711C10.6351 6.72711 10.4307 6.81177 10.28 6.96246C10.1293 7.11316 10.0446 7.31755 10.0446 7.53067ZM3.34827 7.53067C3.34827 7.74379 3.43293 7.94817 3.58363 8.09887C3.73432 8.24957 3.93871 8.33423 4.15183 8.33423C4.36495 8.33423 4.56934 8.24957 4.72003 8.09887C4.87073 7.94817 4.95539 7.74379 4.95539 7.53067C4.95539 7.31755 4.87073 7.11316 4.72003 6.96246C4.56934 6.81177 4.36495 6.72711 4.15183 6.72711C3.93871 6.72711 3.73432 6.81177 3.58363 6.96246C3.43293 7.11316 3.34827 7.31755 3.34827 7.53067ZM14.4173 4.62445C14.039 3.72547 13.4966 2.91856 12.8052 2.22549C12.1186 1.53643 11.3036 0.98871 10.4062 0.613344C9.48547 0.22663 8.5078 0.0307617 7.5 0.0307617H7.46652C6.45202 0.035784 5.46933 0.236674 4.54524 0.631759C3.65556 1.01097 2.84816 1.55967 2.16804 2.24725C1.48334 2.93865 0.945954 3.74221 0.574307 4.63785C0.189267 5.56529 -0.00492728 6.55133 9.49754e-05 7.56582C0.00577557 8.72843 0.280826 9.8739 0.803656 10.9123V13.4569C0.803656 13.6612 0.88479 13.857 1.02921 14.0015C1.17363 14.1459 1.3695 14.227 1.57374 14.227H4.12002C5.15845 14.7498 6.30392 15.0249 7.46652 15.0306H7.50168C8.50445 15.0306 9.4771 14.8364 10.3928 14.4564C11.2857 14.0855 12.0977 13.5441 12.7834 12.8626C13.4748 12.1779 14.0189 11.3777 14.3989 10.4854C14.794 9.56133 14.9949 8.57865 14.9999 7.56415C15.0049 6.54463 14.8074 5.55525 14.4173 4.62445ZM11.8878 11.957C10.7142 13.1188 9.15735 13.7583 7.5 13.7583H7.47154C6.46207 13.7532 5.45929 13.5021 4.5737 13.03L4.43307 12.9547H2.07596V10.5976L2.00063 10.457C1.52854 9.57138 1.27742 8.5686 1.2724 7.55913C1.2657 5.89006 1.90353 4.32312 3.07372 3.14289C4.24223 1.96266 5.80415 1.30976 7.47322 1.30307H7.50168C8.33872 1.30307 9.15065 1.46545 9.91571 1.78688C10.6623 2.09993 11.332 2.55026 11.9079 3.12615C12.4821 3.70036 12.9341 4.37167 13.2471 5.11831C13.5719 5.89174 13.7343 6.71204 13.731 7.55913C13.7209 9.22652 13.0663 10.7884 11.8878 11.957Z" fill="white"/>
</svg>
