<svg width="25" height="24" viewBox="0 0 25 24" fill="none" xmlns="http://www.w3.org/2000/svg">
<path d="M24.192 8.40662L16.6975 7.31742L13.3472 0.525424C13.2557 0.339463 13.1052 0.188923 12.9192 0.097419C12.4528 -0.132818 11.8861 0.0590461 11.6529 0.525424L8.30266 7.31742L0.808145 8.40662C0.601522 8.43614 0.41261 8.53354 0.267974 8.68113C0.0931164 8.86085 -0.00323781 9.10264 8.308e-05 9.35337C0.00340397 9.6041 0.106128 9.84325 0.285684 10.0183L5.70806 15.3049L4.427 22.7699C4.39696 22.9435 4.41618 23.1221 4.48247 23.2854C4.54877 23.4487 4.65949 23.5901 4.80208 23.6937C4.94467 23.7973 5.11342 23.8588 5.28921 23.8713C5.46499 23.8839 5.64077 23.8469 5.79662 23.7646L12.5001 20.2402L19.2035 23.7646C19.3865 23.862 19.599 23.8945 19.8027 23.8591C20.3163 23.7705 20.6617 23.2835 20.5731 22.7699L19.2921 15.3049L24.7144 10.0183C24.862 9.87364 24.9594 9.68473 24.9889 9.47811C25.0686 8.96155 24.7085 8.48337 24.192 8.40662ZM17.0103 14.561L18.0759 20.7686L12.5001 17.8404L6.92419 20.7715L7.98977 14.564L3.47949 10.1659L9.7136 9.25968L12.5001 3.61296L15.2865 9.25968L21.5206 10.1659L17.0103 14.561Z" fill="#545454"/>
</svg>
