<svg width="15" height="16" viewBox="0 0 15 16" fill="none" xmlns="http://www.w3.org/2000/svg">
<path d="M14.4115 12.272C14.0353 11.43 13.4892 10.6651 12.8038 10.0201C12.1205 9.37318 11.3111 8.8574 10.4202 8.50124C10.4122 8.49747 10.4042 8.49559 10.3963 8.49182C11.6389 7.64383 12.4468 6.26255 12.4468 4.70413C12.4468 2.12247 10.2327 0.0307617 7.5 0.0307617C4.76731 0.0307617 2.55322 2.12247 2.55322 4.70413C2.55322 6.26255 3.36106 7.64383 4.60374 8.4937C4.59576 8.49747 4.58779 8.49935 4.57981 8.50312C3.6862 8.85928 2.88434 9.36996 2.19618 10.022C1.51143 10.6675 0.965478 11.4322 0.588477 12.2739C0.218111 13.0978 0.0183648 13.9812 4.98787e-05 14.8762C-0.000482508 14.8964 0.00325156 14.9164 0.0110322 14.9351C0.0188128 14.9538 0.0304825 14.9709 0.0453536 14.9853C0.0602247 14.9997 0.0779963 15.0111 0.0976214 15.0189C0.117246 15.0267 0.138328 15.0308 0.159623 15.0308H1.35642C1.44419 15.0308 1.514 14.9648 1.516 14.8838C1.55589 13.429 2.17424 12.0666 3.26732 11.0339C4.39829 9.96544 5.90028 9.37749 7.5 9.37749C9.09972 9.37749 10.6017 9.96544 11.7327 11.0339C12.8258 12.0666 13.4441 13.429 13.484 14.8838C13.486 14.9667 13.5558 15.0308 13.6436 15.0308H14.8404C14.8617 15.0308 14.8828 15.0267 14.9024 15.0189C14.922 15.0111 14.9398 14.9997 14.9546 14.9853C14.9695 14.9709 14.9812 14.9538 14.989 14.9351C14.9967 14.9164 15.0005 14.8964 15 14.8762C14.98 13.9755 14.7825 13.0992 14.4115 12.272ZM7.5 7.94533C6.58445 7.94533 5.72275 7.60802 5.07448 6.99559C4.42622 6.38315 4.06917 5.56908 4.06917 4.70413C4.06917 3.83918 4.42622 3.02511 5.07448 2.41267C5.72275 1.80023 6.58445 1.46292 7.5 1.46292C8.41555 1.46292 9.27725 1.80023 9.92552 2.41267C10.5738 3.02511 10.9308 3.83918 10.9308 4.70413C10.9308 5.56908 10.5738 6.38315 9.92552 6.99559C9.27725 7.60802 8.41555 7.94533 7.5 7.94533Z" fill="#545454"/>
</svg>
