<svg width="26" height="26" viewBox="0 0 26 26" fill="none" xmlns="http://www.w3.org/2000/svg">
<path d="M6.75 10.4609C6.75 10.8161 6.8911 11.1568 7.14227 11.408C7.39343 11.6591 7.73409 11.8002 8.08929 11.8002C8.44449 11.8002 8.78514 11.6591 9.0363 11.408C9.28747 11.1568 9.42857 10.8161 9.42857 10.4609C9.42857 10.1057 9.28747 9.76508 9.0363 9.51392C8.78514 9.26275 8.44449 9.12165 8.08929 9.12165C7.73409 9.12165 7.39343 9.26275 7.14227 9.51392C6.8911 9.76508 6.75 10.1057 6.75 10.4609ZM16.5714 10.4609C16.5714 10.8161 16.7125 11.1568 16.9637 11.408C17.2149 11.6591 17.5555 11.8002 17.9107 11.8002C18.2659 11.8002 18.6066 11.6591 18.8577 11.408C19.1089 11.1568 19.25 10.8161 19.25 10.4609C19.25 10.1057 19.1089 9.76508 18.8577 9.51392C18.6066 9.26275 18.2659 9.12165 17.9107 9.12165C17.5555 9.12165 17.2149 9.26275 16.9637 9.51392C16.7125 9.76508 16.5714 10.1057 16.5714 10.4609ZM13 0.5C6.0971 0.5 0.5 6.0971 0.5 13C0.5 19.9029 6.0971 25.5 13 25.5C19.9029 25.5 25.5 19.9029 25.5 13C25.5 6.0971 19.9029 0.5 13 0.5ZM20.3382 20.3382C19.3839 21.2924 18.2734 22.0402 17.0374 22.5647C15.7623 23.106 14.4035 23.3795 13 23.3795C11.5965 23.3795 10.2377 23.106 8.95982 22.5647C7.72564 22.0435 6.60458 21.2873 5.65904 20.3382C4.7048 19.3839 3.95703 18.2734 3.43248 17.0374C2.89397 15.7623 2.62054 14.4035 2.62054 13C2.62054 11.5965 2.89397 10.2377 3.43527 8.95982C3.9565 7.72564 4.71271 6.60458 5.66183 5.65904C6.61607 4.7048 7.72656 3.95703 8.96261 3.43248C10.2377 2.89397 11.5965 2.62054 13 2.62054C14.4035 2.62054 15.7623 2.89397 17.0402 3.43527C18.2744 3.9565 19.3954 4.71271 20.341 5.66183C21.2952 6.61607 22.043 7.72656 22.5675 8.96261C23.106 10.2377 23.3795 11.5965 23.3795 13C23.3795 14.4035 23.106 15.7623 22.5647 17.0402C22.0441 18.2739 21.2878 19.3941 20.3382 20.3382ZM17.2411 13.5859H15.899C15.7818 13.5859 15.6814 13.6752 15.673 13.7924C15.567 15.1735 14.409 16.2645 13 16.2645C11.591 16.2645 10.4302 15.1735 10.327 13.7924C10.3186 13.6752 10.2182 13.5859 10.101 13.5859H8.75893C8.72865 13.5859 8.69868 13.592 8.67085 13.6039C8.64301 13.6158 8.61789 13.6333 8.59701 13.6552C8.57613 13.6771 8.55993 13.7031 8.54939 13.7315C8.53885 13.7598 8.5342 13.7901 8.53571 13.8203C8.65848 16.1724 10.6144 18.0502 13 18.0502C15.3856 18.0502 17.3415 16.1724 17.4643 13.8203C17.4658 13.7901 17.4611 13.7598 17.4506 13.7315C17.4401 13.7031 17.4239 13.6771 17.403 13.6552C17.3821 13.6333 17.357 13.6158 17.3291 13.6039C17.3013 13.592 17.2713 13.5859 17.2411 13.5859Z" fill="#545454"/>
</svg>
